<?xml version="1.0" encoding="UTF-8"?>
<svg xmlns="http://www.w3.org/2000/svg" xmlns:xlink="http://www.w3.org/1999/xlink" width="500.25pt" height="500.249987pt" viewBox="0 0 500.25 500.249987" version="1.2">
<defs>
<clipPath id="clip1">
  <path d="M 122 63 L 376 63 L 376 449.851562 L 122 449.851562 Z M 122 63 "/>
</clipPath>
</defs>
<g id="surface1">
<g clip-path="url(#clip1)" clip-rule="nonzero">
<path style=" stroke:none;fill-rule:nonzero;fill:rgb(10.5896%,58.428955%,87.838745%);fill-opacity:1;" d="M 277.988281 178.140625 C 278.257812 178.140625 278.515625 178.15625 278.773438 178.15625 C 285.703125 158.457031 277.972656 165.394531 277.988281 178.140625 Z M 366.75 67.703125 C 368.179688 72.921875 368.210938 77.234375 368.195312 84.65625 C 368.195312 89.773438 366.234375 92.878906 368.511719 94.054688 C 371.496094 92.277344 367.441406 90.84375 375.335938 89.574219 C 377.839844 97.359375 371.464844 97.570312 371.628906 104.042969 C 372.082031 121.375 367.816406 135.179688 371.058594 140.21875 C 371.195312 140.429688 371.207031 140.820312 371.089844 141.046875 C 371.089844 141.046875 359.167969 209.429688 330.84375 263.164062 C 329.847656 265.050781 328.78125 266.785156 330.679688 268.246094 C 313.003906 313.851562 313.710938 304.152344 314.253906 311.933594 C 301.386719 316.1875 303.347656 350.523438 275.546875 374.328125 C 274.703125 373.859375 273.980469 373.46875 273.136719 373 C 273.46875 372.082031 273.738281 371.339844 274.011719 370.570312 C 273.4375 370.4375 265.996094 377.570312 265.363281 379.636719 C 270.515625 380.136719 271.796875 372.742188 273.257812 375.324219 C 274.117188 376.816406 271.402344 381.191406 265.285156 381.132812 C 262.847656 381.101562 262.9375 381.265625 253.65625 391.738281 C 250.613281 395.160156 252.839844 393.699219 242.730469 403.519531 C 222.527344 423.128906 224.378906 414.347656 191.984375 449.558594 C 191.730469 448.503906 191.472656 447.792969 191.429688 447.085938 C 190.945312 440.507812 187.132812 441.761719 184.875 437.640625 C 182.898438 434.019531 183.472656 436.285156 181.410156 434.609375 C 179.480469 433.054688 179.992188 433.433594 177.25 435.90625 C 176.558594 434.382812 173.859375 434.261719 175.425781 431.59375 C 173.0625 431.5625 171.285156 432.496094 169.429688 433.144531 C 157.4375 437.324219 168.316406 426.027344 154.273438 435.046875 C 149.722656 437.957031 150.882812 432.179688 151.078125 430.71875 C 133.375 435.210938 149.875 424.984375 136.480469 427.910156 C 135.273438 423.824219 134.59375 423.550781 135.964844 420.910156 C 139.492188 414.136719 136.734375 413.699219 138.679688 410.351562 C 138.84375 410.082031 144.058594 401.496094 143.96875 401.226562 C 143.046875 398.3125 142.128906 400.125 141.375 403.082031 C 138.890625 403.5625 125.796875 421.664062 123.203125 424.125 C 123.023438 424.019531 122.859375 423.898438 122.675781 423.777344 C 123.867188 420.023438 152.855469 380.484375 158.476562 379.503906 C 157.542969 376.605469 158.972656 375.066406 161.292969 373.964844 C 161.761719 373.753906 162.453125 373.179688 162.410156 372.835938 C 162.214844 371.023438 163.839844 370.992188 164.957031 370.132812 C 164.21875 367.027344 165.421875 364.945312 168.691406 364.402344 C 168.675781 364.191406 210.519531 296.15625 210.667969 295.898438 C 227.316406 264.6875 227.046875 274.554688 212.960938 254.882812 C 194.394531 228.933594 128.265625 106.589844 131.988281 102.429688 C 131.972656 102.351562 128.328125 97.511719 127.515625 94.492188 C 126.292969 89.996094 121.820312 91.128906 124.378906 88.097656 C 125.523438 86.753906 127.453125 85.652344 128.117188 84.054688 C 131.671875 75.394531 132.378906 89.199219 136.359375 84.703125 C 138.527344 82.242188 141 85.230469 141.421875 81.261719 C 142.039062 75.484375 141.691406 77.628906 145.429688 76.238281 C 148.699219 75.03125 149.136719 72.347656 153.550781 73.539062 C 157.46875 74.59375 159.019531 75.019531 159.90625 73.253906 C 161.699219 69.738281 165.167969 72.996094 168.601562 68.425781 C 173.121094 62.421875 177.507812 69.042969 181.527344 70.191406 C 175.621094 51.242188 195.332031 77.296875 201.597656 81.835938 C 200.105469 75.320312 195.660156 76.601562 199.65625 73.027344 C 201.808594 78.199219 196.820312 73.480469 206.796875 82.5625 C 205.0625 82.695312 203.933594 82.785156 202.773438 82.863281 C 204.386719 87.734375 206.074219 82.484375 208.589844 86.195312 C 210.230469 88.625 212.101562 90.917969 213.910156 93.300781 C 210.863281 96.9375 234.355469 138.421875 235.558594 139.886719 C 235.816406 137.726562 235.996094 136.1875 236.207031 134.453125 C 238.542969 135.179688 238.542969 138.875 241.660156 138.074219 C 241.542969 140.277344 252.707031 162.074219 258.550781 166.179688 C 257.015625 169.648438 258.929688 167.507812 265.875 183.617188 C 266.839844 185.851562 267.683594 187.359375 270.347656 186.9375 C 270.695312 186.875 271.085938 187.132812 271.074219 187.132812 C 271.886719 189.378906 272.609375 191.355469 273.332031 193.363281 C 275.636719 192.203125 276.664062 189.183594 276.089844 185.488281 C 275.15625 185.1875 274.175781 184.855469 273.226562 184.539062 C 271.164062 179 307.277344 85.878906 307.1875 85.636719 C 310.699219 82.214844 313.277344 77.433594 316.003906 86.195312 C 320.492188 81.746094 318.609375 78.230469 322.058594 77.175781 C 322.859375 76.933594 323.386719 74.972656 323.550781 73.707031 C 323.777344 72.03125 324.320312 70.777344 325.933594 69.949219 C 327.394531 70.824219 331.746094 75.003906 333.359375 78.488281 C 333.855469 78.15625 334.355469 73.945312 334.59375 73.902344 C 338.046875 73.34375 337.429688 68.046875 343.410156 73.269531 C 343.90625 72.0625 344.3125 71.066406 344.824219 69.785156 C 346.589844 71.804688 345.972656 74.234375 346.859375 76.511719 C 348.457031 74.59375 354.980469 50.277344 360.675781 76.34375 C 361.746094 81.234375 360.253906 83.738281 362.53125 86.605469 C 365.964844 81.21875 361.503906 71.367188 366.75 67.703125 "/>
</g>
</g>
</svg>
